<?xml version="1.0" encoding="UTF-8"?>
<!DOCTYPE svg PUBLIC "-//W3C//DTD SVG 1.1//EN" "http://www.w3.org/Graphics/SVG/1.1/DTD/svg11.dtd">
<svg xmlns="http://www.w3.org/2000/svg" version="1.1" width="249px" height="254px" style="shape-rendering:geometricPrecision; text-rendering:geometricPrecision; image-rendering:optimizeQuality; fill-rule:evenodd; clip-rule:evenodd" xmlns:xlink="http://www.w3.org/1999/xlink">
<g><path style="opacity:1" fill="#a29fde" d="M 143.5,9.5 C 156.388,10.0523 168.388,13.3856 179.5,19.5C 168.974,18.3991 158.64,16.2324 148.5,13C 146.41,12.3305 144.743,11.1639 143.5,9.5 Z"/></g>
<g><path style="opacity:1" fill="#5b58a0" d="M 114.5,11.5 C 116.607,10.5318 118.941,10.1984 121.5,10.5C 125.182,10.3347 128.848,10.5014 132.5,11C 140.769,13.9804 149.103,16.4804 157.5,18.5C 143.217,15.7762 128.883,13.4428 114.5,11.5 Z"/></g>
<g><path style="opacity:1" fill="#27246c" d="M 124.5,23.5 C 120.613,23.6459 116.946,24.3126 113.5,25.5C 99.8755,27.4843 87.5421,32.4843 76.5,40.5C 68.2789,45.7129 60.6122,51.7129 53.5,58.5C 52.8478,57.2749 51.6811,56.6083 50,56.5C 46.9226,57.4637 43.9226,57.4637 41,56.5C 40.2411,58.0629 39.0744,59.0629 37.5,59.5C 53.9162,37.1102 75.5828,22.1102 102.5,14.5C 104.262,14.6427 105.929,14.3094 107.5,13.5C 112.472,18.0385 118.139,19.5385 124.5,18C 125.536,19.7755 125.536,21.6089 124.5,23.5 Z"/></g>
<g><path style="opacity:1" fill="#7572b8" d="M 121.5,10.5 C 128.648,9.50837 135.981,9.17503 143.5,9.5C 144.743,11.1639 146.41,12.3305 148.5,13C 158.64,16.2324 168.974,18.3991 179.5,19.5C 184.165,20.8278 188.165,23.1611 191.5,26.5C 179.747,25.2409 168.414,22.5743 157.5,18.5C 149.103,16.4804 140.769,13.9804 132.5,11C 128.848,10.5014 125.182,10.3347 121.5,10.5 Z"/></g>
<g><path style="opacity:1" fill="#403e86" d="M 114.5,11.5 C 128.883,13.4428 143.217,15.7762 157.5,18.5C 168.414,22.5743 179.747,25.2409 191.5,26.5C 195.082,28.1198 198.082,30.4531 200.5,33.5C 196.215,32.7917 191.882,32.2917 187.5,32C 183.773,30.0936 179.94,28.5936 176,27.5C 172.754,27.2014 170.587,28.5347 169.5,31.5C 164.092,29.9669 158.759,28.1336 153.5,26C 150.243,24.9571 146.91,24.4571 143.5,24.5C 137.355,23.5098 131.022,23.1765 124.5,23.5C 125.536,21.6089 125.536,19.7755 124.5,18C 118.139,19.5385 112.472,18.0385 107.5,13.5C 105.929,14.3094 104.262,14.6427 102.5,14.5C 106.163,12.5841 110.163,11.5841 114.5,11.5 Z"/></g>
<g><path style="opacity:1" fill="#4d49ca" d="M 124.5,23.5 C 131.022,23.1765 137.355,23.5098 143.5,24.5C 137.5,24.5 131.5,24.5 125.5,24.5C 122.833,24.8333 120.167,25.1667 117.5,25.5C 116.167,25.5 114.833,25.5 113.5,25.5C 116.946,24.3126 120.613,23.6459 124.5,23.5 Z"/></g>
<g><path style="opacity:1" fill="#5e59f4" d="M 125.5,24.5 C 131.5,24.5 137.5,24.5 143.5,24.5C 146.91,24.4571 150.243,24.9571 153.5,26C 158.759,28.1336 164.092,29.9669 169.5,31.5C 171.5,32.8333 173.5,34.1667 175.5,35.5C 173.264,38.2093 170.764,40.876 168,43.5C 167.544,44.7441 168.044,45.5774 169.5,46C 168.809,47.0674 168.309,48.2341 168,49.5C 163.495,54.8456 158.995,60.6789 154.5,67C 154.201,68.073 154.201,69.2397 154.5,70.5C 138.725,61.5482 122.725,61.2148 106.5,69.5C 107.816,65.9105 108.983,62.2439 110,58.5C 111.333,55.8333 113.333,53.8333 116,52.5C 116.412,47.648 118.246,43.4813 121.5,40C 122.079,38.5747 122.079,36.908 121.5,35C 123.26,31.6488 124.594,28.1488 125.5,24.5 Z"/></g>
<g><path style="opacity:1" fill="#534fea" d="M 125.5,24.5 C 124.594,28.1488 123.26,31.6488 121.5,35C 122.079,36.908 122.079,38.5747 121.5,40C 118.246,43.4813 116.412,47.648 116,52.5C 113.333,53.8333 111.333,55.8333 110,58.5C 108.983,62.2439 107.816,65.9105 106.5,69.5C 102.463,72.5367 99.1295,76.2034 96.5,80.5C 95.8333,80.8333 95.1667,81.1667 94.5,81.5C 94.1667,81.5 93.8333,81.5 93.5,81.5C 93.9675,77.5561 95.3008,73.8895 97.5,70.5C 96.4719,64.3253 98.1385,58.8253 102.5,54C 102.167,53.6667 101.833,53.3333 101.5,53C 104.464,52.1597 104.797,51.1597 102.5,50C 103.025,49.3076 103.692,48.8076 104.5,48.5C 106.146,50.392 106.48,52.392 105.5,54.5C 105.846,55.6956 106.346,55.6956 107,54.5C 107.82,50.6918 109.653,47.5251 112.5,45C 112.043,44.586 111.709,44.086 111.5,43.5C 113.713,41.4584 114.38,39.125 113.5,36.5C 114.891,36.8914 115.891,36.0581 116.5,34C 116.043,33.586 115.709,33.086 115.5,32.5C 116.577,30.2706 117.244,27.9372 117.5,25.5C 120.167,25.1667 122.833,24.8333 125.5,24.5 Z"/></g>
<g><path style="opacity:1" fill="#4844e0" d="M 113.5,25.5 C 114.833,25.5 116.167,25.5 117.5,25.5C 117.244,27.9372 116.577,30.2706 115.5,32.5C 115.709,33.086 116.043,33.586 116.5,34C 115.891,36.0581 114.891,36.8914 113.5,36.5C 114.38,39.125 113.713,41.4584 111.5,43.5C 111.709,44.086 112.043,44.586 112.5,45C 109.653,47.5251 107.82,50.6918 107,54.5C 106.346,55.6956 105.846,55.6956 105.5,54.5C 106.48,52.392 106.146,50.392 104.5,48.5C 103.692,48.8076 103.025,49.3076 102.5,50C 104.797,51.1597 104.464,52.1597 101.5,53C 101.833,53.3333 102.167,53.6667 102.5,54C 98.1385,58.8253 96.4719,64.3253 97.5,70.5C 95.3008,73.8895 93.9675,77.5561 93.5,81.5C 92.1417,80.3744 90.8084,80.3744 89.5,81.5C 89.433,83.4244 89.0997,85.4244 88.5,87.5C 87.5832,86.8728 86.5832,86.5394 85.5,86.5C 84.5,85.8333 83.5,85.1667 82.5,84.5C 82.5,83.8333 82.1667,83.5 81.5,83.5C 81.8541,81.4588 81.8541,79.6255 81.5,78C 82.1667,77.3333 82.8333,76.6667 83.5,76C 82.9026,74.1114 82.5693,72.2781 82.5,70.5C 83.0253,69.8076 83.6919,69.3076 84.5,69C 83.572,68.6121 82.9054,67.9454 82.5,67C 84.6729,62.3124 87.3396,57.9791 90.5,54C 89.6919,53.6924 89.0253,53.1924 88.5,52.5C 90.6422,50.4297 91.9756,47.9297 92.5,45C 90.4311,44.6758 90.0977,43.8425 91.5,42.5C 90.5,42.1667 89.5,41.8333 88.5,41.5C 83.8778,42.7275 79.2111,43.2275 74.5,43C 75.3805,42.2917 76.0472,41.4584 76.5,40.5C 87.5421,32.4843 99.8755,27.4843 113.5,25.5 Z"/></g>
<g><path style="opacity:1" fill="#2e2c74" d="M 200.5,33.5 C 202.167,34.5 203.5,35.8333 204.5,37.5C 202.61,38.9696 200.443,39.9696 198,40.5C 193.223,39.1007 189.389,39.7673 186.5,42.5C 183.031,39.9277 179.364,37.5943 175.5,35.5C 173.5,34.1667 171.5,32.8333 169.5,31.5C 170.587,28.5347 172.754,27.2014 176,27.5C 179.94,28.5936 183.773,30.0936 187.5,32C 191.882,32.2917 196.215,32.7917 200.5,33.5 Z"/></g>
<g><path style="opacity:1" fill="#423ed9" d="M 76.5,40.5 C 76.0472,41.4584 75.3805,42.2917 74.5,43C 79.2111,43.2275 83.8778,42.7275 88.5,41.5C 89.5,41.8333 90.5,42.1667 91.5,42.5C 90.0977,43.8425 90.4311,44.6758 92.5,45C 91.9756,47.9297 90.6422,50.4297 88.5,52.5C 89.0253,53.1924 89.6919,53.6924 90.5,54C 87.3396,57.9791 84.6729,62.3124 82.5,67C 82.9054,67.9454 83.572,68.6121 84.5,69C 83.6919,69.3076 83.0253,69.8076 82.5,70.5C 82.5693,72.2781 82.9026,74.1114 83.5,76C 82.8333,76.6667 82.1667,77.3333 81.5,78C 81.8541,79.6255 81.8541,81.4588 81.5,83.5C 78.9899,83.0535 76.9899,83.7202 75.5,85.5C 73.5,86.8333 71.8333,88.5 70.5,90.5C 69.448,90.6495 68.448,90.4828 67.5,90C 67.7289,87.4477 67.7289,84.9477 67.5,82.5C 65.7801,83.9549 63.7801,84.7883 61.5,85C 53.1931,86.3312 44.8598,86.9979 36.5,87C 37.1712,86.0138 37.1712,84.8471 36.5,83.5C 40.9678,74.3631 46.6344,66.0297 53.5,58.5C 60.6122,51.7129 68.2789,45.7129 76.5,40.5 Z"/></g>
<g><path style="opacity:1" fill="#222063" d="M 204.5,37.5 C 211.69,43.686 217.357,51.0193 221.5,59.5C 220.883,59.3893 220.383,59.056 220,58.5C 219.5,59.6667 218.667,60.5 217.5,61C 218.672,61.4186 219.672,62.0853 220.5,63C 216.273,63.7444 212.106,64.5777 208,65.5C 207.667,65.1667 207.333,64.8333 207,64.5C 207.019,66.1075 207.185,67.7741 207.5,69.5C 202.419,59.3695 195.419,50.7028 186.5,43.5C 186.5,43.1667 186.5,42.8333 186.5,42.5C 189.389,39.7673 193.223,39.1007 198,40.5C 200.443,39.9696 202.61,38.9696 204.5,37.5 Z"/></g>
<g><path style="opacity:1" fill="#4e4ae2" d="M 175.5,35.5 C 179.364,37.5943 183.031,39.9277 186.5,42.5C 186.5,42.8333 186.5,43.1667 186.5,43.5C 186.31,46.8772 184.81,49.5439 182,51.5C 181.667,53.1667 181.333,54.8333 181,56.5C 176.247,62.0877 172.08,68.0877 168.5,74.5C 170.841,74.1732 172.508,72.5066 173.5,69.5C 175.709,67.1215 178.042,64.9548 180.5,63C 180.167,62.6667 179.833,62.3333 179.5,62C 182.952,60.215 185.786,57.715 188,54.5C 188.167,54.8333 188.333,55.1667 188.5,55.5C 183.395,62.7284 178.062,69.7284 172.5,76.5C 170.04,80.8381 169.04,85.5048 169.5,90.5C 168.833,89.1667 168.167,87.8333 167.5,86.5C 167.573,84.9731 166.906,83.9731 165.5,83.5C 165.262,81.5956 164.262,80.2623 162.5,79.5C 160.355,76.0806 157.688,73.0806 154.5,70.5C 154.201,69.2397 154.201,68.073 154.5,67C 158.995,60.6789 163.495,54.8456 168,49.5C 168.309,48.2341 168.809,47.0674 169.5,46C 168.044,45.5774 167.544,44.7441 168,43.5C 170.764,40.876 173.264,38.2093 175.5,35.5 Z"/></g>
<g><path style="opacity:1" fill="#403dd2" d="M 186.5,43.5 C 195.419,50.7028 202.419,59.3695 207.5,69.5C 208.787,72.4061 209.787,75.4061 210.5,78.5C 210.082,79.2216 209.416,79.7216 208.5,80C 208.833,80.3333 209.167,80.6667 209.5,81C 204.342,81.8875 199.175,82.7208 194,83.5C 192.564,83.4411 191.231,83.1078 190,82.5C 189.326,83.5784 188.326,84.2451 187,84.5C 185.159,83.875 183.326,83.7083 181.5,84C 182.167,84.3333 182.833,84.6667 183.5,85C 178.825,86.6722 174.992,89.5055 172,93.5C 171.617,92.944 171.117,92.6107 170.5,92.5C 170.167,92.5 169.833,92.5 169.5,92.5C 169.5,91.8333 169.5,91.1667 169.5,90.5C 169.04,85.5048 170.04,80.8381 172.5,76.5C 178.062,69.7284 183.395,62.7284 188.5,55.5C 188.333,55.1667 188.167,54.8333 188,54.5C 185.786,57.715 182.952,60.215 179.5,62C 179.833,62.3333 180.167,62.6667 180.5,63C 178.042,64.9548 175.709,67.1215 173.5,69.5C 172.508,72.5066 170.841,74.1732 168.5,74.5C 172.08,68.0877 176.247,62.0877 181,56.5C 181.333,54.8333 181.667,53.1667 182,51.5C 184.81,49.5439 186.31,46.8772 186.5,43.5 Z"/></g>
<g><path style="opacity:1" fill="#fafafd" d="M 154.5,70.5 C 157.688,73.0806 160.355,76.0806 162.5,79.5C 164.397,87.7359 162.063,94.5692 155.5,100C 156.654,100.914 156.487,101.747 155,102.5C 154.667,104.833 154.333,107.167 154,109.5C 153.5,110.667 152.667,111.5 151.5,112C 151.833,112.333 152.167,112.667 152.5,113C 150.474,114.594 148.474,116.094 146.5,117.5C 145.542,117.953 144.708,118.619 144,119.5C 142.267,132.742 135.1,141.742 122.5,146.5C 118.327,146.691 114.16,147.024 110,147.5C 106.064,147.273 102.23,146.607 98.5,145.5C 89.1433,141.122 85.3099,133.789 87,123.5C 87.7083,122.619 88.5416,121.953 89.5,121.5C 92.2153,119.877 95.2153,119.21 98.5,119.5C 102.926,122.904 103.759,127.237 101,132.5C 100.184,133.823 99.0174,134.489 97.5,134.5C 95.4579,131.816 95.1246,128.816 96.5,125.5C 95.1667,125.5 93.8333,125.5 92.5,125.5C 91.7497,129.775 93.083,133.109 96.5,135.5C 101.999,142.066 108.999,144.232 117.5,142C 124.792,139.535 130.792,135.368 135.5,129.5C 140.286,124.681 141.619,119.015 139.5,112.5C 139.5,111.833 139.167,111.5 138.5,111.5C 137.508,109.974 136.008,109.307 134,109.5C 131.365,109.739 128.865,110.406 126.5,111.5C 104.392,119.779 93.0588,112.112 92.5,88.5C 93.4408,86.9505 94.1075,85.2838 94.5,83.5C 95.9063,83.0269 96.573,82.0269 96.5,80.5C 99.1295,76.2034 102.463,72.5367 106.5,69.5C 122.725,61.2148 138.725,61.5482 154.5,70.5 Z"/></g>
<g><path style="opacity:1" fill="#221f62" d="M 53.5,58.5 C 46.6344,66.0297 40.9678,74.3631 36.5,83.5C 33.5654,87.0327 31.3987,91.0327 30,95.5C 24.0821,110.963 21.9154,126.963 23.5,143.5C 22.5073,135.35 22.1739,127.017 22.5,118.5C 18.7423,118.848 15.0756,119.515 11.5,120.5C 11.5,118.833 11.5,117.167 11.5,115.5C 15.355,94.4643 24.0216,75.7977 37.5,59.5C 39.0744,59.0629 40.2411,58.0629 41,56.5C 43.9226,57.4637 46.9226,57.4637 50,56.5C 51.6811,56.6083 52.8478,57.2749 53.5,58.5 Z"/></g>
<g><path style="opacity:1" fill="#a19de7" d="M 96.5,80.5 C 96.573,82.0269 95.9063,83.0269 94.5,83.5C 94.5,82.8333 94.5,82.1667 94.5,81.5C 95.1667,81.1667 95.8333,80.8333 96.5,80.5 Z"/></g>
<g><path style="opacity:1" fill="#7874da" d="M 81.5,83.5 C 82.1667,83.5 82.5,83.8333 82.5,84.5C 80.0971,84.448 77.7638,84.7814 75.5,85.5C 76.9899,83.7202 78.9899,83.0535 81.5,83.5 Z"/></g>
<g><path style="opacity:1" fill="#e8e8f0" d="M 162.5,79.5 C 164.262,80.2623 165.262,81.5956 165.5,83.5C 165.427,85.0269 166.094,86.0269 167.5,86.5C 168.167,87.8333 168.833,89.1667 169.5,90.5C 169.5,91.1667 169.5,91.8333 169.5,92.5C 171.262,101.383 171.928,110.383 171.5,119.5C 171.007,121.806 170.674,124.139 170.5,126.5C 169.699,128.042 169.366,129.708 169.5,131.5C 165.614,139.598 160.948,147.265 155.5,154.5C 147.841,161.993 139.175,167.993 129.5,172.5C 128.5,172.5 127.5,172.5 126.5,172.5C 127.933,171.167 129.267,169.667 130.5,168C 128.527,167.505 126.527,167.338 124.5,167.5C 147.227,158.771 160.893,142.438 165.5,118.5C 166.124,116.166 166.957,113.833 168,111.5C 168.796,108.961 168.629,106.628 167.5,104.5C 164.04,101.623 160.873,101.956 158,105.5C 160.825,125.879 153.658,141.879 136.5,153.5C 136.393,151.097 137.393,149.264 139.5,148C 138.207,147.51 136.873,147.343 135.5,147.5C 142.306,140.547 148.139,132.88 153,124.5C 154.167,119.165 152,116.831 146.5,117.5C 148.474,116.094 150.474,114.594 152.5,113C 152.167,112.667 151.833,112.333 151.5,112C 152.667,111.5 153.5,110.667 154,109.5C 154.333,107.167 154.667,104.833 155,102.5C 156.487,101.747 156.654,100.914 155.5,100C 162.063,94.5692 164.397,87.7359 162.5,79.5 Z"/></g>
<g><path style="opacity:1" fill="#e7e6f3" d="M 82.5,84.5 C 83.5,85.1667 84.5,85.8333 85.5,86.5C 88.2858,96.6873 84.6191,101.354 74.5,100.5C 74.7492,97.2556 76.4159,95.2556 79.5,94.5C 80.4345,93.4324 80.7678,92.099 80.5,90.5C 78.0672,90.2729 76.4006,91.2729 75.5,93.5C 73.9172,95.6626 72.5839,97.9959 71.5,100.5C 69.5275,103.084 68.5275,106.084 68.5,109.5C 68.1667,109.5 67.8333,109.5 67.5,109.5C 67.8261,103.402 67.1595,102.735 65.5,107.5C 65.0431,108.298 64.3764,108.631 63.5,108.5C 63.5,107.5 63.5,106.5 63.5,105.5C 65.0242,100.118 67.3575,95.1185 70.5,90.5C 71.8333,88.5 73.5,86.8333 75.5,85.5C 77.7638,84.7814 80.0971,84.448 82.5,84.5 Z"/></g>
<g><path style="opacity:1" fill="#9b97dc" d="M 165.5,83.5 C 166.906,83.9731 167.573,84.9731 167.5,86.5C 166.094,86.0269 165.427,85.0269 165.5,83.5 Z"/></g>
<g><path style="opacity:1" fill="#3d3aca" d="M 210.5,78.5 C 212.898,82.403 214.231,86.7363 214.5,91.5C 214.81,97.7576 214.476,103.924 213.5,110C 200.887,111.373 188.387,113.206 176,115.5C 174.879,111.432 173.712,107.432 172.5,103.5C 172.249,99.7512 171.583,96.0845 170.5,92.5C 171.117,92.6107 171.617,92.944 172,93.5C 174.992,89.5055 178.825,86.6722 183.5,85C 182.833,84.6667 182.167,84.3333 181.5,84C 183.326,83.7083 185.159,83.875 187,84.5C 188.326,84.2451 189.326,83.5784 190,82.5C 191.231,83.1078 192.564,83.4411 194,83.5C 199.175,82.7208 204.342,81.8875 209.5,81C 209.167,80.6667 208.833,80.3333 208.5,80C 209.416,79.7216 210.082,79.2216 210.5,78.5 Z"/></g>
<g><path style="opacity:1" fill="#1b1a56" d="M 221.5,59.5 C 223.924,62.0078 225.59,65.0078 226.5,68.5C 229.151,77.0224 231.318,85.6891 233,94.5C 233.693,104.189 233.527,113.856 232.5,123.5C 227.116,124.119 221.45,124.786 215.5,125.5C 216.673,115.678 216.673,106.011 215.5,96.5C 215.784,94.5853 215.451,92.9187 214.5,91.5C 214.231,86.7363 212.898,82.403 210.5,78.5C 209.787,75.4061 208.787,72.4061 207.5,69.5C 207.185,67.7741 207.019,66.1075 207,64.5C 207.333,64.8333 207.667,65.1667 208,65.5C 212.106,64.5777 216.273,63.7444 220.5,63C 219.672,62.0853 218.672,61.4186 217.5,61C 218.667,60.5 219.5,59.6667 220,58.5C 220.383,59.056 220.883,59.3893 221.5,59.5 Z"/></g>
<g><path style="opacity:1" fill="#544fd5" d="M 79.5,94.5 C 77.901,94.7678 76.5676,94.4345 75.5,93.5C 76.4006,91.2729 78.0672,90.2729 80.5,90.5C 80.7678,92.099 80.4345,93.4324 79.5,94.5 Z"/></g>
<g><path style="opacity:1" fill="#7771d6" d="M 75.5,93.5 C 76.5676,94.4345 77.901,94.7678 79.5,94.5C 76.4159,95.2556 74.7492,97.2556 74.5,100.5C 73.5,99.1667 72.5,99.1667 71.5,100.5C 72.5839,97.9959 73.9172,95.6626 75.5,93.5 Z"/></g>
<g><path style="opacity:1" fill="#3d3ac4" d="M 214.5,91.5 C 215.451,92.9187 215.784,94.5853 215.5,96.5C 216.07,108.663 215.07,120.663 212.5,132.5C 199.293,134.161 185.793,135.828 172,137.5C 170.833,137.167 169.667,136.833 168.5,136.5C 169.309,134.929 169.643,133.262 169.5,131.5C 169.366,129.708 169.699,128.042 170.5,126.5C 171.924,124.485 172.59,122.152 172.5,119.5C 172.5,114.167 172.5,108.833 172.5,103.5C 173.712,107.432 174.879,111.432 176,115.5C 188.387,113.206 200.887,111.373 213.5,110C 214.476,103.924 214.81,97.7576 214.5,91.5 Z"/></g>
<g><path style="opacity:1" fill="#514cd9" d="M 93.5,81.5 C 93.8333,81.5 94.1667,81.5 94.5,81.5C 94.5,82.1667 94.5,82.8333 94.5,83.5C 94.1075,85.2838 93.4408,86.9505 92.5,88.5C 91.8335,94.0139 91.1668,99.6805 90.5,105.5C 89.1761,103.682 87.3428,102.682 85,102.5C 83.6153,102.514 82.4486,102.848 81.5,103.5C 77.9326,104.068 75.5993,106.068 74.5,109.5C 73.0762,111.515 72.4095,113.848 72.5,116.5C 71.6762,120.312 71.1762,124.312 71,128.5C 70.7508,129.624 70.2508,130.624 69.5,131.5C 69.1667,131.333 68.8333,131.167 68.5,131C 67.5223,124.59 67.189,118.09 67.5,111.5C 67.5,110.833 67.5,110.167 67.5,109.5C 67.8333,109.5 68.1667,109.5 68.5,109.5C 70.3104,106.855 71.3104,103.855 71.5,100.5C 72.5,99.1667 73.5,99.1667 74.5,100.5C 84.6191,101.354 88.2858,96.6873 85.5,86.5C 86.5832,86.5394 87.5832,86.8728 88.5,87.5C 89.0997,85.4244 89.433,83.4244 89.5,81.5C 90.8084,80.3744 92.1417,80.3744 93.5,81.5 Z"/></g>
<g><path style="opacity:1" fill="#eeedf8" d="M 67.5,109.5 C 67.5,110.167 67.5,110.833 67.5,111.5C 63.4349,132.469 69.7682,149.635 86.5,163C 91.4748,165.936 96.8082,167.769 102.5,168.5C 109.862,168.635 117.196,168.302 124.5,167.5C 126.527,167.338 128.527,167.505 130.5,168C 129.267,169.667 127.933,171.167 126.5,172.5C 124.833,173.167 123.167,173.833 121.5,174.5C 97.4134,179.262 79.08,171.262 66.5,150.5C 65.342,147.011 64.0086,143.678 62.5,140.5C 61.8333,138.167 61.1667,135.833 60.5,133.5C 60.24,126.443 60.5733,119.443 61.5,112.5C 62.3446,111.329 63.0113,109.995 63.5,108.5C 64.3764,108.631 65.0431,108.298 65.5,107.5C 67.1595,102.735 67.8261,103.402 67.5,109.5 Z"/></g>
<g><path style="opacity:1" fill="#7973d7" d="M 71.5,100.5 C 71.3104,103.855 70.3104,106.855 68.5,109.5C 68.5275,106.084 69.5275,103.084 71.5,100.5 Z"/></g>
<g><path style="opacity:1" fill="#635ce0" d="M 92.5,88.5 C 93.0588,112.112 104.392,119.779 126.5,111.5C 123.905,113.816 121.239,116.149 118.5,118.5C 116.133,124.438 112.467,129.271 107.5,133C 108.5,133.333 109.5,133.667 110.5,134C 109.373,135.753 108.373,137.587 107.5,139.5C 111.5,140.833 115.5,140.833 119.5,139.5C 120.04,138.252 120.707,137.085 121.5,136C 124.564,134.936 127.064,133.103 129,130.5C 131.845,126.795 134.678,123.128 137.5,119.5C 138.48,116.914 138.813,114.247 138.5,111.5C 139.167,111.5 139.5,111.833 139.5,112.5C 139.655,118.522 138.321,124.188 135.5,129.5C 130.792,135.368 124.792,139.535 117.5,142C 108.999,144.232 101.999,142.066 96.5,135.5C 96.5,134.833 96.8333,134.5 97.5,134.5C 99.0174,134.489 100.184,133.823 101,132.5C 103.759,127.237 102.926,122.904 98.5,119.5C 96.3718,118.371 94.0385,118.204 91.5,119C 90.6195,119.708 89.9528,120.542 89.5,121.5C 88.5416,121.953 87.7083,122.619 87,123.5C 85.3099,133.789 89.1433,141.122 98.5,145.5C 99.6002,146.558 100.934,147.392 102.5,148C 106.821,148.499 111.154,148.666 115.5,148.5C 111.647,149.166 107.647,149.833 103.5,150.5C 101.978,152.156 102.311,153.323 104.5,154C 108.486,154.499 112.486,154.666 116.5,154.5C 116.5,154.833 116.5,155.167 116.5,155.5C 109.348,156.263 102.681,155.263 96.5,152.5C 96.0269,151.094 95.0269,150.427 93.5,150.5C 86.148,145.799 81.4813,139.132 79.5,130.5C 79.5,127.5 79.5,124.5 79.5,121.5C 81.099,121.768 82.4324,121.434 83.5,120.5C 87.3453,118.307 89.6786,114.973 90.5,110.5C 89.5899,105.599 86.5899,103.266 81.5,103.5C 82.4486,102.848 83.6153,102.514 85,102.5C 87.3428,102.682 89.1761,103.682 90.5,105.5C 91.1668,99.6805 91.8335,94.0139 92.5,88.5 Z"/></g>
<g><path style="opacity:1" fill="#f3f2fa" d="M 81.5,103.5 C 86.5899,103.266 89.5899,105.599 90.5,110.5C 89.6786,114.973 87.3453,118.307 83.5,120.5C 82.5,120.5 81.5,120.5 80.5,120.5C 80.5,118.5 80.5,116.5 80.5,114.5C 82.6348,114.853 83.9681,114.02 84.5,112C 82.5237,108.643 80.6903,108.809 79,112.5C 78.1808,118.681 78.3475,124.681 79.5,130.5C 81.4813,139.132 86.148,145.799 93.5,150.5C 93.9731,151.906 94.9731,152.573 96.5,152.5C 102.681,155.263 109.348,156.263 116.5,155.5C 119.152,155.59 121.485,154.924 123.5,153.5C 127.461,151.519 131.461,149.519 135.5,147.5C 136.873,147.343 138.207,147.51 139.5,148C 137.393,149.264 136.393,151.097 136.5,153.5C 135.128,154.512 133.795,155.512 132.5,156.5C 128.873,157.321 125.54,158.654 122.5,160.5C 122.167,160.5 121.833,160.5 121.5,160.5C 115.536,161.307 109.536,161.64 103.5,161.5C 100.037,160.901 96.7036,159.901 93.5,158.5C 93.0269,157.094 92.0269,156.427 90.5,156.5C 80.7843,150.456 75.1176,141.79 73.5,130.5C 73.3257,123.465 73.6591,116.465 74.5,109.5C 75.5993,106.068 77.9326,104.068 81.5,103.5 Z"/></g>
<g><path style="opacity:1" fill="#3e3bca" d="M 70.5,90.5 C 67.3575,95.1185 65.0242,100.118 63.5,105.5C 62.8333,106.5 62.1667,107.5 61.5,108.5C 60.5041,108.414 59.6708,108.748 59,109.5C 57.9806,111.269 57.814,112.936 58.5,114.5C 57.91,115.799 56.91,116.632 55.5,117C 56.1212,119.498 55.4545,121.832 53.5,124C 53.9574,124.414 54.2907,124.914 54.5,125.5C 53.8744,128.806 52.5411,132.139 50.5,135.5C 50.7093,136.086 51.0426,136.586 51.5,137C 50.2062,139.087 49.0395,141.254 48,143.5C 43.8088,144.596 43.3088,143.429 46.5,140C 46.0426,139.586 45.7093,139.086 45.5,138.5C 48.7386,134.113 48.0719,132.947 43.5,135C 44.6341,136.016 44.3008,136.683 42.5,137C 43.0966,138.628 42.7633,140.295 41.5,142C 42.7908,144.09 42.1242,145.424 39.5,146C 39.8333,146.333 40.1667,146.667 40.5,147C 39.4173,149.165 38.084,151.165 36.5,153C 36.6448,153.772 36.9781,154.439 37.5,155C 34.1985,156.745 32.8652,159.245 33.5,162.5C 32.635,163.583 31.635,163.749 30.5,163C 30.6937,160.237 30.6937,157.403 30.5,154.5C 31.8897,152.831 32.2231,151.164 31.5,149.5C 30.6143,150.325 30.281,151.325 30.5,152.5C 28.2821,152.386 26.2821,151.72 24.5,150.5C 24.3259,148.139 23.9926,145.806 23.5,143.5C 21.9154,126.963 24.0821,110.963 30,95.5C 31.3987,91.0327 33.5654,87.0327 36.5,83.5C 37.1712,84.8471 37.1712,86.0138 36.5,87C 44.8598,86.9979 53.1931,86.3312 61.5,85C 63.7801,84.7883 65.7801,83.9549 67.5,82.5C 67.7289,84.9477 67.7289,87.4477 67.5,90C 68.448,90.4828 69.448,90.6495 70.5,90.5 Z"/></g>
<g><path style="opacity:1" fill="#b7b3df" d="M 169.5,92.5 C 169.833,92.5 170.167,92.5 170.5,92.5C 171.583,96.0845 172.249,99.7512 172.5,103.5C 172.5,108.833 172.5,114.167 172.5,119.5C 172.167,119.5 171.833,119.5 171.5,119.5C 171.928,110.383 171.262,101.383 169.5,92.5 Z"/></g>
<g><path style="opacity:1" fill="#524dda" d="M 138.5,111.5 C 138.813,114.247 138.48,116.914 137.5,119.5C 134.678,123.128 131.845,126.795 129,130.5C 127.064,133.103 124.564,134.936 121.5,136C 120.707,137.085 120.04,138.252 119.5,139.5C 115.5,140.833 111.5,140.833 107.5,139.5C 108.373,137.587 109.373,135.753 110.5,134C 109.5,133.667 108.5,133.333 107.5,133C 112.467,129.271 116.133,124.438 118.5,118.5C 121.239,116.149 123.905,113.816 126.5,111.5C 128.865,110.406 131.365,109.739 134,109.5C 136.008,109.307 137.508,109.974 138.5,111.5 Z"/></g>
<g><path style="opacity:1" fill="#9692da" d="M 63.5,105.5 C 63.5,106.5 63.5,107.5 63.5,108.5C 63.0113,109.995 62.3446,111.329 61.5,112.5C 61.5,111.167 61.5,109.833 61.5,108.5C 62.1667,107.5 62.8333,106.5 63.5,105.5 Z"/></g>
<g><path style="opacity:1" fill="#9f9bd9" d="M 167.5,104.5 C 168.629,106.628 168.796,108.961 168,111.5C 166.957,113.833 166.124,116.166 165.5,118.5C 165.689,113.699 166.356,109.033 167.5,104.5 Z"/></g>
<g><path style="opacity:1" fill="#6c65dc" d="M 83.5,120.5 C 82.4324,121.434 81.099,121.768 79.5,121.5C 79.5,124.5 79.5,127.5 79.5,130.5C 78.3475,124.681 78.1808,118.681 79,112.5C 80.6903,108.809 82.5237,108.643 84.5,112C 83.9681,114.02 82.6348,114.853 80.5,114.5C 80.5,116.5 80.5,118.5 80.5,120.5C 81.5,120.5 82.5,120.5 83.5,120.5 Z"/></g>
<g><path style="opacity:1" fill="#c4c1ef" d="M 98.5,119.5 C 95.2153,119.21 92.2153,119.877 89.5,121.5C 89.9528,120.542 90.6195,119.708 91.5,119C 94.0385,118.204 96.3718,118.371 98.5,119.5 Z"/></g>
<g><path style="opacity:1" fill="#cccaed" d="M 74.5,109.5 C 73.6591,116.465 73.3257,123.465 73.5,130.5C 72.5139,126.03 72.1805,121.363 72.5,116.5C 72.4095,113.848 73.0762,111.515 74.5,109.5 Z"/></g>
<g><path style="opacity:1" fill="#d5d3f0" d="M 139.5,112.5 C 141.619,119.015 140.286,124.681 135.5,129.5C 138.321,124.188 139.655,118.522 139.5,112.5 Z"/></g>
<g><path style="opacity:1" fill="#19174f" d="M 232.5,123.5 C 231.059,137.184 227.392,150.184 221.5,162.5C 219.922,163.066 218.588,164.066 217.5,165.5C 216.479,168.753 214.812,171.586 212.5,174C 211.216,174.684 210.049,174.517 209,173.5C 207.806,174.43 206.473,175.097 205,175.5C 202.73,174.725 200.563,174.392 198.5,174.5C 197.14,175.18 195.807,175.847 194.5,176.5C 199.344,168.815 203.677,160.815 207.5,152.5C 211.249,143.842 213.915,134.842 215.5,125.5C 221.45,124.786 227.116,124.119 232.5,123.5 Z"/></g>
<g><path style="opacity:1" fill="#7d78cf" d="M 171.5,119.5 C 171.833,119.5 172.167,119.5 172.5,119.5C 172.59,122.152 171.924,124.485 170.5,126.5C 170.674,124.139 171.007,121.806 171.5,119.5 Z"/></g>
<g><path style="opacity:1" fill="#3c38be" d="M 215.5,96.5 C 216.673,106.011 216.673,115.678 215.5,125.5C 213.915,134.842 211.249,143.842 207.5,152.5C 190.25,153.342 173.084,155.008 156,157.5C 155.5,157.333 155,157.167 154.5,157C 155.252,156.329 155.586,155.496 155.5,154.5C 160.948,147.265 165.614,139.598 169.5,131.5C 169.643,133.262 169.309,134.929 168.5,136.5C 169.667,136.833 170.833,137.167 172,137.5C 185.793,135.828 199.293,134.161 212.5,132.5C 215.07,120.663 216.07,108.663 215.5,96.5 Z"/></g>
<g><path style="opacity:1" fill="#716be1" d="M 97.5,134.5 C 96.8333,134.5 96.5,134.833 96.5,135.5C 93.083,133.109 91.7497,129.775 92.5,125.5C 93.8333,125.5 95.1667,125.5 96.5,125.5C 95.1246,128.816 95.4579,131.816 97.5,134.5 Z"/></g>
<g><path style="opacity:1" fill="#4b4777" d="M 11.5,115.5 C 11.5,117.167 11.5,118.833 11.5,120.5C 10.2575,133.484 10.2575,146.484 11.5,159.5C 7.55965,144.839 7.55965,130.172 11.5,115.5 Z"/></g>
<g><path style="opacity:1" fill="#4541c9" d="M 61.5,108.5 C 61.5,109.833 61.5,111.167 61.5,112.5C 60.5733,119.443 60.24,126.443 60.5,133.5C 60.6633,135.857 60.4966,138.19 60,140.5C 57.5697,144.209 55.7364,148.209 54.5,152.5C 50.7427,154.853 49.0761,158.02 49.5,162C 48.5467,163.955 47.2134,165.622 45.5,167C 46.5965,169.716 45.5965,171.55 42.5,172.5C 41.8333,172.167 41.1667,171.833 40.5,171.5C 41.0933,169.618 41.7599,167.785 42.5,166C 38.5684,169.502 35.9018,174.002 34.5,179.5C 29.5766,170.397 26.2433,160.73 24.5,150.5C 26.2821,151.72 28.2821,152.386 30.5,152.5C 30.281,151.325 30.6143,150.325 31.5,149.5C 32.2231,151.164 31.8897,152.831 30.5,154.5C 30.6937,157.403 30.6937,160.237 30.5,163C 31.635,163.749 32.635,163.583 33.5,162.5C 32.8652,159.245 34.1985,156.745 37.5,155C 36.9781,154.439 36.6448,153.772 36.5,153C 38.084,151.165 39.4173,149.165 40.5,147C 40.1667,146.667 39.8333,146.333 39.5,146C 42.1242,145.424 42.7908,144.09 41.5,142C 42.7633,140.295 43.0966,138.628 42.5,137C 44.3008,136.683 44.6341,136.016 43.5,135C 48.0719,132.947 48.7386,134.113 45.5,138.5C 45.7093,139.086 46.0426,139.586 46.5,140C 43.3088,143.429 43.8088,144.596 48,143.5C 49.0395,141.254 50.2062,139.087 51.5,137C 51.0426,136.586 50.7093,136.086 50.5,135.5C 52.5411,132.139 53.8744,128.806 54.5,125.5C 54.2907,124.914 53.9574,124.414 53.5,124C 55.4545,121.832 56.1212,119.498 55.5,117C 56.91,116.632 57.91,115.799 58.5,114.5C 57.814,112.936 57.9806,111.269 59,109.5C 59.6708,108.748 60.5041,108.414 61.5,108.5 Z"/></g>
<g><path style="opacity:1" fill="#5f59d9" d="M 67.5,111.5 C 67.189,118.09 67.5223,124.59 68.5,131C 68.8333,131.167 69.1667,131.333 69.5,131.5C 70.2508,130.624 70.7508,129.624 71,128.5C 71.1762,124.312 71.6762,120.312 72.5,116.5C 72.1805,121.363 72.5139,126.03 73.5,130.5C 75.1176,141.79 80.7843,150.456 90.5,156.5C 90.9731,157.906 91.9731,158.573 93.5,158.5C 96.7036,159.901 100.037,160.901 103.5,161.5C 106.962,162.482 110.629,162.815 114.5,162.5C 110.688,163.324 106.688,163.824 102.5,164C 100.018,165.461 100.018,166.961 102.5,168.5C 96.8082,167.769 91.4748,165.936 86.5,163C 69.7682,149.635 63.4349,132.469 67.5,111.5 Z"/></g>
<g><path style="opacity:1" fill="#4f4acf" d="M 60.5,133.5 C 61.1667,135.833 61.8333,138.167 62.5,140.5C 62.804,143.522 63.304,146.522 64,149.5C 64.6708,150.252 65.5041,150.586 66.5,150.5C 66.6203,153.48 67.287,156.313 68.5,159C 69.0125,160.576 68.3458,161.909 66.5,163C 67.6493,164.73 67.6493,166.396 66.5,168C 67.9733,168.71 68.6399,169.876 68.5,171.5C 67.448,171.351 66.448,171.517 65.5,172C 64.5,173.667 63.5,175.333 62.5,177C 61.0563,177.781 59.723,177.614 58.5,176.5C 59.0253,175.808 59.6919,175.308 60.5,175C 59.7865,173.657 60.1198,172.324 61.5,171C 60.1667,170 60.1667,169 61.5,168C 60.6919,167.692 60.0253,167.192 59.5,166.5C 63.6035,163.771 63.2702,163.104 58.5,164.5C 56.3762,170.081 53.7095,175.414 50.5,180.5C 50.7093,181.086 51.0426,181.586 51.5,182C 47.6738,184.328 44.6738,187.494 42.5,191.5C 39.5887,188.01 36.922,184.344 34.5,180.5C 34.5,180.167 34.5,179.833 34.5,179.5C 35.9018,174.002 38.5684,169.502 42.5,166C 41.7599,167.785 41.0933,169.618 40.5,171.5C 41.1667,171.833 41.8333,172.167 42.5,172.5C 45.5965,171.55 46.5965,169.716 45.5,167C 47.2134,165.622 48.5467,163.955 49.5,162C 49.0761,158.02 50.7427,154.853 54.5,152.5C 55.7364,148.209 57.5697,144.209 60,140.5C 60.4966,138.19 60.6633,135.857 60.5,133.5 Z"/></g>
<g><path style="opacity:1" fill="#1d1a54" d="M 23.5,143.5 C 23.9926,145.806 24.3259,148.139 24.5,150.5C 26.2433,160.73 29.5766,170.397 34.5,179.5C 34.5,179.833 34.5,180.167 34.5,180.5C 33.8501,180.196 33.1835,179.863 32.5,179.5C 30.0315,182.472 28.1982,185.806 27,189.5C 26.1841,190.823 25.0174,191.489 23.5,191.5C 17.2853,181.724 13.2853,171.058 11.5,159.5C 10.2575,146.484 10.2575,133.484 11.5,120.5C 15.0756,119.515 18.7423,118.848 22.5,118.5C 22.1739,127.017 22.5073,135.35 23.5,143.5 Z"/></g>
<g><path style="opacity:1" fill="#776fd8" d="M 62.5,140.5 C 64.0086,143.678 65.342,147.011 66.5,150.5C 65.5041,150.586 64.6708,150.252 64,149.5C 63.304,146.522 62.804,143.522 62.5,140.5 Z"/></g>
<g><path style="opacity:1" fill="#ccc9ef" d="M 98.5,145.5 C 102.23,146.607 106.064,147.273 110,147.5C 114.16,147.024 118.327,146.691 122.5,146.5C 120.485,147.924 118.152,148.59 115.5,148.5C 111.154,148.666 106.821,148.499 102.5,148C 100.934,147.392 99.6002,146.558 98.5,145.5 Z"/></g>
<g><path style="opacity:1" fill="#4d49cd" d="M 146.5,117.5 C 152,116.831 154.167,119.165 153,124.5C 148.139,132.88 142.306,140.547 135.5,147.5C 131.461,149.519 127.461,151.519 123.5,153.5C 121.139,153.674 118.806,154.007 116.5,154.5C 112.486,154.666 108.486,154.499 104.5,154C 102.311,153.323 101.978,152.156 103.5,150.5C 107.647,149.833 111.647,149.166 115.5,148.5C 118.152,148.59 120.485,147.924 122.5,146.5C 135.1,141.742 142.267,132.742 144,119.5C 144.708,118.619 145.542,117.953 146.5,117.5 Z"/></g>
<g><path style="opacity:1" fill="#9b98e4" d="M 93.5,150.5 C 95.0269,150.427 96.0269,151.094 96.5,152.5C 94.9731,152.573 93.9731,151.906 93.5,150.5 Z"/></g>
<g><path style="opacity:1" fill="#3a36b8" d="M 207.5,152.5 C 203.677,160.815 199.344,168.815 194.5,176.5C 193.833,176.833 193.167,177.167 192.5,177.5C 189.772,179.33 186.772,180.83 183.5,182C 175.044,182.564 166.71,183.73 158.5,185.5C 149.484,184.357 140.484,184.69 131.5,186.5C 130.833,186.167 130.167,185.833 129.5,185.5C 130.326,184.549 130.492,183.549 130,182.5C 125.591,187.332 120.758,191.665 115.5,195.5C 119.259,190.705 122.259,185.371 124.5,179.5C 123.448,179.649 122.448,179.483 121.5,179C 123.111,175.432 125.778,173.265 129.5,172.5C 139.175,167.993 147.841,161.993 155.5,154.5C 155.586,155.496 155.252,156.329 154.5,157C 155,157.167 155.5,157.333 156,157.5C 173.084,155.008 190.25,153.342 207.5,152.5 Z"/></g>
<g><path style="opacity:1" fill="#b6b3e5" d="M 123.5,153.5 C 121.485,154.924 119.152,155.59 116.5,155.5C 116.5,155.167 116.5,154.833 116.5,154.5C 118.806,154.007 121.139,153.674 123.5,153.5 Z"/></g>
<g><path style="opacity:1" fill="#a7a4e5" d="M 90.5,156.5 C 92.0269,156.427 93.0269,157.094 93.5,158.5C 91.9731,158.573 90.9731,157.906 90.5,156.5 Z"/></g>
<g><path style="opacity:1" fill="#4742c4" d="M 167.5,104.5 C 166.356,109.033 165.689,113.699 165.5,118.5C 160.893,142.438 147.227,158.771 124.5,167.5C 117.196,168.302 109.862,168.635 102.5,168.5C 100.018,166.961 100.018,165.461 102.5,164C 106.688,163.824 110.688,163.324 114.5,162.5C 117.228,162.829 119.562,162.163 121.5,160.5C 121.833,160.5 122.167,160.5 122.5,160.5C 126.775,161.25 130.109,159.917 132.5,156.5C 133.795,155.512 135.128,154.512 136.5,153.5C 153.658,141.879 160.825,125.879 158,105.5C 160.873,101.956 164.04,101.623 167.5,104.5 Z"/></g>
<g><path style="opacity:1" fill="#645dc9" d="M 132.5,156.5 C 130.109,159.917 126.775,161.25 122.5,160.5C 125.54,158.654 128.873,157.321 132.5,156.5 Z"/></g>
<g><path style="opacity:1" fill="#7e79d3" d="M 121.5,160.5 C 119.562,162.163 117.228,162.829 114.5,162.5C 110.629,162.815 106.962,162.482 103.5,161.5C 109.536,161.64 115.536,161.307 121.5,160.5 Z"/></g>
<g><path style="opacity:1" fill="#3734b0" d="M 192.5,177.5 C 175.704,200.24 153.371,214.407 125.5,220C 114.21,221.326 102.877,221.826 91.5,221.5C 91.1667,220.833 90.8333,220.167 90.5,219.5C 92.288,219.785 93.9547,219.452 95.5,218.5C 97.3719,215.418 99.7052,212.751 102.5,210.5C 102.291,209.914 101.957,209.414 101.5,209C 105.5,205.333 109.5,201.667 113.5,198C 112.849,196.692 113.515,195.859 115.5,195.5C 120.758,191.665 125.591,187.332 130,182.5C 130.492,183.549 130.326,184.549 129.5,185.5C 130.167,185.833 130.833,186.167 131.5,186.5C 140.484,184.69 149.484,184.357 158.5,185.5C 166.71,183.73 175.044,182.564 183.5,182C 186.772,180.83 189.772,179.33 192.5,177.5 Z"/></g>
<g><path style="opacity:1" fill="#5551d1" d="M 66.5,150.5 C 79.08,171.262 97.4134,179.262 121.5,174.5C 121.082,175.222 120.416,175.722 119.5,176C 114.167,176.333 108.833,176.667 103.5,177C 99.9291,179.968 97.7624,183.802 97,188.5C 95.527,188.132 94.027,188.632 92.5,190C 91.7734,191.399 91.2734,192.899 91,194.5C 90.6667,194.167 90.3333,193.833 90,193.5C 83.4479,199.1 77.9479,205.6 73.5,213C 72.552,213.483 71.552,213.649 70.5,213.5C 66.0751,212.121 62.0751,209.954 58.5,207C 52.9972,202.329 47.6638,197.496 42.5,192.5C 42.5,192.167 42.5,191.833 42.5,191.5C 44.6738,187.494 47.6738,184.328 51.5,182C 51.0426,181.586 50.7093,181.086 50.5,180.5C 53.7095,175.414 56.3762,170.081 58.5,164.5C 63.2702,163.104 63.6035,163.771 59.5,166.5C 60.0253,167.192 60.6919,167.692 61.5,168C 60.1667,169 60.1667,170 61.5,171C 60.1198,172.324 59.7865,173.657 60.5,175C 59.6919,175.308 59.0253,175.808 58.5,176.5C 59.723,177.614 61.0563,177.781 62.5,177C 63.5,175.333 64.5,173.667 65.5,172C 66.448,171.517 67.448,171.351 68.5,171.5C 68.6399,169.876 67.9733,168.71 66.5,168C 67.6493,166.396 67.6493,164.73 66.5,163C 68.3458,161.909 69.0125,160.576 68.5,159C 67.287,156.313 66.6203,153.48 66.5,150.5 Z"/></g>
<g><path style="opacity:1" fill="#423fbc" d="M 126.5,172.5 C 127.5,172.5 128.5,172.5 129.5,172.5C 125.778,173.265 123.111,175.432 121.5,179C 122.448,179.483 123.448,179.649 124.5,179.5C 122.259,185.371 119.259,190.705 115.5,195.5C 113.515,195.859 112.849,196.692 113.5,198C 109.5,201.667 105.5,205.333 101.5,209C 101.957,209.414 102.291,209.914 102.5,210.5C 99.7052,212.751 97.3719,215.418 95.5,218.5C 93.9547,219.452 92.288,219.785 90.5,219.5C 84.9191,219.749 79.5857,218.749 74.5,216.5C 73.1667,215.5 71.8333,214.5 70.5,213.5C 71.552,213.649 72.552,213.483 73.5,213C 77.9479,205.6 83.4479,199.1 90,193.5C 90.3333,193.833 90.6667,194.167 91,194.5C 91.2734,192.899 91.7734,191.399 92.5,190C 94.027,188.632 95.527,188.132 97,188.5C 97.7624,183.802 99.9291,179.968 103.5,177C 108.833,176.667 114.167,176.333 119.5,176C 120.416,175.722 121.082,175.222 121.5,174.5C 123.167,173.833 124.833,173.167 126.5,172.5 Z"/></g>
<g><path style="opacity:1" fill="#2b295b" d="M 34.5,180.5 C 36.922,184.344 39.5887,188.01 42.5,191.5C 42.5,191.833 42.5,192.167 42.5,192.5C 41.183,197.611 39.3497,202.611 37,207.5C 36.3292,206.748 35.4959,206.414 34.5,206.5C 30.1125,202.071 26.4458,197.071 23.5,191.5C 25.0174,191.489 26.1841,190.823 27,189.5C 28.1982,185.806 30.0315,182.472 32.5,179.5C 33.1835,179.863 33.8501,180.196 34.5,180.5 Z"/></g>
<g><path style="opacity:0.998" fill="#11101c" d="M 226.5,68.5 C 237.341,89.1918 240.841,111.192 237,134.5C 226.405,186.096 196.238,220.596 146.5,238C 123.731,244.684 101.397,243.851 79.5,235.5C 137.566,244.549 182.732,224.549 215,175.5C 217.433,171.253 219.599,166.919 221.5,162.5C 227.392,150.184 231.059,137.184 232.5,123.5C 233.527,113.856 233.693,104.189 233,94.5C 231.318,85.6891 229.151,77.0224 226.5,68.5 Z"/></g>
<g><path style="opacity:1" fill="#161445" d="M 221.5,162.5 C 219.599,166.919 217.433,171.253 215,175.5C 182.732,224.549 137.566,244.549 79.5,235.5C 78.5084,235.672 77.8417,235.338 77.5,234.5C 78.9778,234.762 80.3112,234.429 81.5,233.5C 83.9663,228.706 87.2996,224.706 91.5,221.5C 102.877,221.826 114.21,221.326 125.5,220C 153.371,214.407 175.704,200.24 192.5,177.5C 193.167,177.167 193.833,176.833 194.5,176.5C 195.807,175.847 197.14,175.18 198.5,174.5C 200.563,174.392 202.73,174.725 205,175.5C 206.473,175.097 207.806,174.43 209,173.5C 210.049,174.517 211.216,174.684 212.5,174C 214.812,171.586 216.479,168.753 217.5,165.5C 218.588,164.066 219.922,163.066 221.5,162.5 Z"/></g>
<g><path style="opacity:1" fill="#323060" d="M 42.5,192.5 C 47.6638,197.496 52.9972,202.329 58.5,207C 62.0751,209.954 66.0751,212.121 70.5,213.5C 71.8333,214.5 73.1667,215.5 74.5,216.5C 71.3474,220.795 68.6807,225.462 66.5,230.5C 54.0059,224.921 43.3393,216.921 34.5,206.5C 35.4959,206.414 36.3292,206.748 37,207.5C 39.3497,202.611 41.183,197.611 42.5,192.5 Z"/></g>
<g><path style="opacity:1" fill="#262454" d="M 74.5,216.5 C 79.5857,218.749 84.9191,219.749 90.5,219.5C 90.8333,220.167 91.1667,220.833 91.5,221.5C 87.2996,224.706 83.9663,228.706 81.5,233.5C 80.3112,234.429 78.9778,234.762 77.5,234.5C 73.6872,233.562 70.0205,232.229 66.5,230.5C 68.6807,225.462 71.3474,220.795 74.5,216.5 Z"/></g>
</svg>
